<svg xmlns="http://www.w3.org/2000/svg" viewBox="0 0 128 128" role="img" aria-label="Potpuri rose curve logo">
  <title>Potpuri rose curve</title>
  <desc>Polar rose curve sampled from r = 52 cos(4 theta), producing eight petals.</desc>
  <path d="M116.0 64.0 L115.9 64.9 L115.5 65.8 L114.8 66.7 L113.9 67.5 L112.7 68.3 L111.2 69.0 L109.6 69.6 L107.7 70.1 L105.6 70.6 L103.2 70.9 L100.7 71.1 L98.0 71.2 L95.2 71.2 L92.2 71.0 L89.1 70.7 L85.9 70.3 L82.6 69.7 L79.3 69.0 L75.9 68.1 L72.5 67.1 L69.1 65.9 L65.7 64.7 L62.3 63.3 L59.0 61.8 L55.8 60.2 L52.7 58.5 L49.7 56.7 L46.8 54.9 L44.1 52.9 L41.5 51.0 L39.1 49.0 L36.9 47.0 L34.8 45.0 L33.0 43.1 L31.4 41.2 L30.0 39.3 L28.8 37.5 L27.8 35.7 L27.1 34.1 L26.6 32.6 L26.3 31.2 L26.2 30.0 L26.3 28.9 L26.7 28.0 L27.2 27.2 L28.0 26.7 L28.9 26.3 L30.0 26.2 L31.2 26.3 L32.6 26.6 L34.1 27.1 L35.7 27.8 L37.5 28.8 L39.3 30.0 L41.2 31.4 L43.1 33.0 L45.0 34.8 L47.0 36.9 L49.0 39.1 L51.0 41.5 L52.9 44.1 L54.9 46.8 L56.7 49.7 L58.5 52.7 L60.2 55.8 L61.8 59.0 L63.3 62.3 L64.7 65.7 L65.9 69.1 L67.1 72.5 L68.1 75.9 L69.0 79.3 L69.7 82.6 L70.3 85.9 L70.7 89.1 L71.0 92.2 L71.2 95.2 L71.2 98.0 L71.1 100.7 L70.9 103.2 L70.6 105.6 L70.1 107.7 L69.6 109.6 L69.0 111.2 L68.3 112.7 L67.5 113.9 L66.7 114.8 L65.8 115.5 L64.9 115.9 L64.0 116.0 L63.1 115.9 L62.2 115.5 L61.3 114.8 L60.5 113.9 L59.7 112.7 L59.0 111.2 L58.4 109.6 L57.9 107.7 L57.4 105.6 L57.1 103.2 L56.9 100.7 L56.8 98.0 L56.8 95.2 L57.0 92.2 L57.3 89.1 L57.7 85.9 L58.3 82.6 L59.0 79.3 L59.9 75.9 L60.9 72.5 L62.1 69.1 L63.3 65.7 L64.7 62.3 L66.2 59.0 L67.8 55.8 L69.5 52.7 L71.3 49.7 L73.1 46.8 L75.1 44.1 L77.0 41.5 L79.0 39.1 L81.0 36.9 L83.0 34.8 L84.9 33.0 L86.8 31.4 L88.7 30.0 L90.5 28.8 L92.3 27.8 L93.9 27.1 L95.4 26.6 L96.8 26.3 L98.0 26.2 L99.1 26.3 L100.0 26.7 L100.8 27.2 L101.3 28.0 L101.7 28.9 L101.8 30.0 L101.7 31.2 L101.4 32.6 L100.9 34.1 L100.2 35.7 L99.2 37.5 L98.0 39.3 L96.6 41.2 L95.0 43.1 L93.2 45.0 L91.1 47.0 L88.9 49.0 L86.5 51.0 L83.9 52.9 L81.2 54.9 L78.3 56.7 L75.3 58.5 L72.2 60.2 L69.0 61.8 L65.7 63.3 L62.3 64.7 L58.9 65.9 L55.5 67.1 L52.1 68.1 L48.7 69.0 L45.4 69.7 L42.1 70.3 L38.9 70.7 L35.8 71.0 L32.8 71.2 L30.0 71.2 L27.3 71.1 L24.8 70.9 L22.4 70.6 L20.3 70.1 L18.4 69.6 L16.8 69.0 L15.3 68.3 L14.1 67.5 L13.2 66.7 L12.5 65.8 L12.1 64.9 L12.0 64.0 L12.1 63.1 L12.5 62.2 L13.2 61.3 L14.1 60.5 L15.3 59.7 L16.8 59.0 L18.4 58.4 L20.3 57.9 L22.4 57.4 L24.8 57.1 L27.3 56.9 L30.0 56.8 L32.8 56.8 L35.8 57.0 L38.9 57.3 L42.1 57.7 L45.4 58.3 L48.7 59.0 L52.1 59.9 L55.5 60.9 L58.9 62.1 L62.3 63.3 L65.7 64.7 L69.0 66.2 L72.2 67.8 L75.3 69.5 L78.3 71.3 L81.2 73.1 L83.9 75.1 L86.5 77.0 L88.9 79.0 L91.1 81.0 L93.2 83.0 L95.0 84.9 L96.6 86.8 L98.0 88.7 L99.2 90.5 L100.2 92.3 L100.9 93.9 L101.4 95.4 L101.7 96.8 L101.8 98.0 L101.7 99.1 L101.3 100.0 L100.8 100.8 L100.0 101.3 L99.1 101.7 L98.0 101.8 L96.8 101.7 L95.4 101.4 L93.9 100.9 L92.3 100.2 L90.5 99.2 L88.7 98.0 L86.8 96.6 L84.9 95.0 L83.0 93.2 L81.0 91.1 L79.0 88.9 L77.0 86.5 L75.1 83.9 L73.1 81.2 L71.3 78.3 L69.5 75.3 L67.8 72.2 L66.2 69.0 L64.7 65.7 L63.3 62.3 L62.1 58.9 L60.9 55.5 L59.9 52.1 L59.0 48.7 L58.3 45.4 L57.7 42.1 L57.3 38.9 L57.0 35.8 L56.8 32.8 L56.8 30.0 L56.9 27.3 L57.1 24.8 L57.4 22.4 L57.9 20.3 L58.4 18.4 L59.0 16.8 L59.7 15.3 L60.5 14.1 L61.3 13.2 L62.2 12.5 L63.1 12.1 L64.0 12.0 L64.9 12.1 L65.8 12.5 L66.7 13.2 L67.5 14.1 L68.3 15.3 L69.0 16.8 L69.6 18.4 L70.1 20.3 L70.6 22.4 L70.9 24.8 L71.1 27.3 L71.2 30.0 L71.2 32.8 L71.0 35.8 L70.7 38.9 L70.3 42.1 L69.7 45.4 L69.0 48.7 L68.1 52.1 L67.1 55.5 L65.9 58.9 L64.7 62.3 L63.3 65.7 L61.8 69.0 L60.2 72.2 L58.5 75.3 L56.7 78.3 L54.9 81.2 L52.9 83.9 L51.0 86.5 L49.0 88.9 L47.0 91.1 L45.0 93.2 L43.1 95.0 L41.2 96.6 L39.3 98.0 L37.5 99.2 L35.7 100.2 L34.1 100.9 L32.6 101.4 L31.2 101.7 L30.0 101.8 L28.9 101.7 L28.0 101.3 L27.2 100.8 L26.7 100.0 L26.3 99.1 L26.2 98.0 L26.3 96.8 L26.6 95.4 L27.1 93.9 L27.8 92.3 L28.8 90.5 L30.0 88.7 L31.4 86.8 L33.0 84.9 L34.8 83.0 L36.9 81.0 L39.1 79.0 L41.5 77.0 L44.1 75.1 L46.8 73.1 L49.7 71.3 L52.7 69.5 L55.8 67.8 L59.0 66.2 L62.3 64.7 L65.7 63.3 L69.1 62.1 L72.5 60.9 L75.9 59.9 L79.3 59.0 L82.6 58.3 L85.9 57.7 L89.1 57.3 L92.2 57.0 L95.2 56.8 L98.0 56.8 L100.7 56.9 L103.2 57.1 L105.6 57.4 L107.7 57.9 L109.6 58.4 L111.2 59.0 L112.7 59.7 L113.9 60.5 L114.8 61.3 L115.5 62.2 L115.9 63.1 L116.0 64.0 Z"
        fill="none" stroke="#0b57d0" stroke-width="5" stroke-linecap="round" stroke-linejoin="round"/>
</svg>
